<?xml version="1.0" encoding="UTF-8" standalone="no"?>
<!-- Created with Inkscape (http://www.inkscape.org/) -->

<svg
   version="1.1"
   id="svg2"
   xml:space="preserve"
   width="24in"
   height="18in"
   viewBox="0 0 2304 1728"
   sodipodi:docname="Regis_Qing_ESC204_Widget_Lab_Case.svg"
   inkscape:version="1.1.1 (3bf5ae0d25, 2021-09-20)"
   xmlns:inkscape="http://www.inkscape.org/namespaces/inkscape"
   xmlns:sodipodi="http://sodipodi.sourceforge.net/DTD/sodipodi-0.dtd"
   xmlns="http://www.w3.org/2000/svg"
   xmlns:svg="http://www.w3.org/2000/svg"
   xmlns:rdf="http://www.w3.org/1999/02/22-rdf-syntax-ns#"
   xmlns:cc="http://creativecommons.org/ns#"
   xmlns:dc="http://purl.org/dc/elements/1.1/"><metadata
     id="metadata8"><rdf:RDF><cc:Work
         rdf:about=""><dc:format>image/svg+xml</dc:format><dc:type
           rdf:resource="http://purl.org/dc/dcmitype/StillImage" /></cc:Work></rdf:RDF></metadata><defs
     id="defs6"><clipPath
       clipPathUnits="userSpaceOnUse"
       id="clipPath18"><path
         d="M 0,1296 H 1728 V 0 H 0 Z"
         id="path16"
         inkscape:connector-curvature="0" /></clipPath><clipPath
       clipPathUnits="userSpaceOnUse"
       id="clipPath66"><path
         d="M 0,1296 H 1728 V 0 H 0 Z"
         id="path64"
         inkscape:connector-curvature="0" /></clipPath><clipPath
       clipPathUnits="userSpaceOnUse"
       id="clipPath114"><path
         d="M 0,1296 H 1728 V 0 H 0 Z"
         id="path112"
         inkscape:connector-curvature="0" /></clipPath><clipPath
       clipPathUnits="userSpaceOnUse"
       id="clipPath126"><path
         d="M 639.733,602.209 H 712.82 V 515.643 H 639.733 Z"
         id="path124"
         inkscape:connector-curvature="0" /></clipPath><clipPath
       clipPathUnits="userSpaceOnUse"
       id="clipPath142"><path
         d="m 719.43,602.471 h 96.184 V 512.306 H 719.43 Z"
         id="path140"
         inkscape:connector-curvature="0" /></clipPath><clipPath
       clipPathUnits="userSpaceOnUse"
       id="clipPath158"><path
         d="m 827.326,599.003 h 55.747 v -83.36 h -55.747 z"
         id="path156"
         inkscape:connector-curvature="0" /></clipPath><clipPath
       clipPathUnits="userSpaceOnUse"
       id="clipPath174"><path
         d="m 894.851,599.003 h 37.558 v -83.36 h -37.558 z"
         id="path172"
         inkscape:connector-curvature="0" /></clipPath><clipPath
       clipPathUnits="userSpaceOnUse"
       id="clipPath190"><path
         d="m 943.466,599.003 h 51.756 v -83.36 h -51.756 z"
         id="path188"
         inkscape:connector-curvature="0" /></clipPath><clipPath
       clipPathUnits="userSpaceOnUse"
       id="clipPath210"><path
         d="m 1082.6,582.097 h 64.12 v -64.115 h -64.12 z"
         id="path208"
         inkscape:connector-curvature="0" /></clipPath><clipPath
       clipPathUnits="userSpaceOnUse"
       id="clipPath226"><path
         d="m 1094.14,570.557 h 41.04 v -41.034 h -41.04 z"
         id="path224"
         inkscape:connector-curvature="0" /></clipPath></defs><sodipodi:namedview
     pagecolor="#ffffff"
     bordercolor="#666666"
     borderopacity="1"
     objecttolerance="10"
     gridtolerance="10"
     guidetolerance="10"
     inkscape:pageopacity="0"
     inkscape:pageshadow="2"
     inkscape:window-width="1536"
     inkscape:window-height="793"
     id="namedview4"
     showgrid="false"
     units="in"
     inkscape:zoom="1"
     inkscape:cx="557.5"
     inkscape:cy="120.5"
     inkscape:window-x="-8"
     inkscape:window-y="-8"
     inkscape:window-maximized="1"
     inkscape:current-layer="g10"
     inkscape:pagecheckerboard="0"
     inkscape:document-units="in" /><g
     id="g10"
     inkscape:groupmode="layer"
     inkscape:label="MyMaker_LasercutTemplate_Illustrator"
     transform="matrix(1.3333333,0,0,-1.3333333,0,1728)"><path
       d="M 1719.072,1287 H 1719 v -16 h 0.072 z m 0,-36 H 1719 v -20 h 0.072 z m 0,-40 H 1719 v -20 h 0.072 z m 0,-40 H 1719 v -20 h 0.072 z m 0,-40 H 1719 v -20 h 0.072 z m 0,-40 H 1719 v -20 h 0.072 z m 0,-40 H 1719 v -20 h 0.072 z m 0,-40 H 1719 v -20 h 0.072 z m 0,-40 H 1719 v -20 h 0.072 z m 0,-40 H 1719 v -20 h 0.072 z m 0,-40 H 1719 v -20 h 0.072 z m 0,-40 H 1719 v -20 h 0.072 z m 0,-40 H 1719 v -20 h 0.072 z m 0,-40 H 1719 v -20 h 0.072 z m 0,-40 H 1719 v -20 h 0.072 z m 0,-40 H 1719 v -20 h 0.072 z m 0,-40 H 1719 v -20 h 0.072 z m 0,-40 H 1719 v -20 h 0.072 z m 0,-40 H 1719 v -20 h 0.072 z m 0,-40 H 1719 v -20 h 0.072 z m 0,-40 H 1719 v -20 h 0.072 z m 0,-40 H 1719 v -20 h 0.072 z m 0,-40 H 1719 v -20 h 0.072 z m 0,-40 H 1719 v -20 h 0.072 z m 0,-40 H 1719 v -20 h 0.072 z m 0,-40 H 1719 v -20 h 0.072 z m 0,-40 H 1719 v -20 h 0.072 z m 0,-40 H 1719 v -20 h 0.072 z m 0,-40 H 1719 v -20 h 0.072 z m 0,-40 H 1719 v -20 h 0.072 z m 0,-40 H 1719 V 71 h 0.072 z m 0,-40 H 1719 V 31 h 0.072 z m 0,-40 H 1719 V 9 h -18 V 8.928 h 18 0.072 V 9 Z M 1681,9 h -20 V 8.928 h 20 z m -40,0 h -20 V 8.928 h 20 z m -40,0 h -20 V 8.928 h 20 z m -40,0 h -20 V 8.928 h 20 z m -40,0 h -20 V 8.928 h 20 z m -40,0 h -20 V 8.928 h 20 z m -40,0 h -20 V 8.928 h 20 z m -40,0 h -20 V 8.928 h 20 z m -40,0 h -20 V 8.928 h 20 z m -40,0 h -20 V 8.928 h 20 z m -40,0 h -20 V 8.928 h 20 z m -40,0 h -20 V 8.928 h 20 z m -40,0 h -20 V 8.928 h 20 z m -40,0 h -20 V 8.928 h 20 z m -40,0 h -20 V 8.928 h 20 z m -40,0 h -20 V 8.928 h 20 z m -40,0 h -20 V 8.928 h 20 z m -40,0 H 981 V 8.928 h 20 z M 961,9 H 941 V 8.928 h 20 z M 921,9 H 901 V 8.928 h 20 z M 881,9 H 861 V 8.928 h 20 z M 841,9 H 821 V 8.928 h 20 z M 801,9 H 781 V 8.928 h 20 z M 761,9 H 741 V 8.928 h 20 z M 721,9 H 701 V 8.928 h 20 z M 681,9 H 661 V 8.928 h 20 z M 641,9 H 621 V 8.928 h 20 z M 601,9 H 581 V 8.928 h 20 z M 561,9 H 541 V 8.928 h 20 z M 521,9 H 501 V 8.928 h 20 z M 481,9 H 461 V 8.928 h 20 z M 441,9 H 421 V 8.928 h 20 z M 401,9 H 381 V 8.928 h 20 z M 361,9 H 341 V 8.928 h 20 z M 321,9 H 301 V 8.928 h 20 z M 281,9 H 261 V 8.928 h 20 z M 241,9 H 221 V 8.928 h 20 z M 201,9 H 181 V 8.928 h 20 z M 161,9 H 141 V 8.928 h 20 z M 121,9 H 101 V 8.928 h 20 z M 81,9 H 61 V 8.928 H 81 Z M 41,9 H 21 V 8.928 H 41 Z M 9,37 H 8.928 V 17 H 9 Z M 9,77 H 8.928 V 57 H 9 Z m 0,40 H 8.928 V 97 H 9 Z m 0,40 H 8.928 V 137 H 9 Z m 0,40 H 8.928 V 177 H 9 Z m 0,40 H 8.928 V 217 H 9 Z m 0,40 H 8.928 V 257 H 9 Z m 0,40 H 8.928 V 297 H 9 Z m 0,40 H 8.928 V 337 H 9 Z m 0,40 H 8.928 V 377 H 9 Z m 0,40 H 8.928 V 417 H 9 Z m 0,40 H 8.928 V 457 H 9 Z m 0,40 H 8.928 V 497 H 9 Z m 0,40 H 8.928 V 537 H 9 Z m 0,40 H 8.928 V 577 H 9 Z m 0,40 H 8.928 V 617 H 9 Z m 0,40 H 8.928 V 657 H 9 Z m 0,40 H 8.928 V 697 H 9 Z m 0,40 H 8.928 V 737 H 9 Z m 0,40 H 8.928 V 777 H 9 Z m 0,40 H 8.928 V 817 H 9 Z m 0,40 H 8.928 V 857 H 9 Z m 0,40 H 8.928 V 897 H 9 Z m 0,40 H 8.928 V 937 H 9 Z m 0,40 H 8.928 V 977 H 9 Z m 0,40 H 8.928 v -20 H 9 Z m 0,40 H 8.928 v -20 H 9 Z m 0,40 H 8.928 v -20 H 9 Z m 0,40 H 8.928 v -20 H 9 Z m 0,40 H 8.928 v -20 H 9 Z m 0,40 H 8.928 v -20 H 9 Z m 0,40 H 8.928 v -20 H 9 Z m 30,10.072 H 19 V 1287 h 20 z m 40,0 H 59 V 1287 h 20 z m 40,0 H 99 V 1287 h 20 z m 40,0 H 139 V 1287 h 20 z m 40,0 H 179 V 1287 h 20 z m 40,0 H 219 V 1287 h 20 z m 40,0 H 259 V 1287 h 20 z m 40,0 H 299 V 1287 h 20 z m 40,0 H 339 V 1287 h 20 z m 40,0 H 379 V 1287 h 20 z m 40,0 H 419 V 1287 h 20 z m 40,0 H 459 V 1287 h 20 z m 40,0 H 499 V 1287 h 20 z m 40,0 H 539 V 1287 h 20 z m 40,0 H 579 V 1287 h 20 z m 40,0 H 619 V 1287 h 20 z m 40,0 H 659 V 1287 h 20 z m 40,0 H 699 V 1287 h 20 z m 40,0 H 739 V 1287 h 20 z m 40,0 H 779 V 1287 h 20 z m 40,0 H 819 V 1287 h 20 z m 40,0 H 859 V 1287 h 20 z m 40,0 H 899 V 1287 h 20 z m 40,0 H 939 V 1287 h 20 z m 40,0 H 979 V 1287 h 20 z m 40,0 h -20 V 1287 h 20 z m 40,0 h -20 V 1287 h 20 z m 40,0 h -20 V 1287 h 20 z m 40,0 h -20 V 1287 h 20 z m 40,0 h -20 V 1287 h 20 z m 40,0 h -20 V 1287 h 20 z m 40,0 h -20 V 1287 h 20 z m 40,0 h -20 V 1287 h 20 z m 40,0 h -20 V 1287 h 20 z m 40,0 h -20 V 1287 h 20 z m 40,0 h -20 V 1287 h 20 z m 40,0 h -20 V 1287 h 20 z m 40,0 h -20 V 1287 h 20 z m 40,0 h -20 V 1287 h 20 z m 40,0 h -20 V 1287 h 20 z m 40,0 h -20 V 1287 h 20 z m 40,0 h -20 V 1287 h 20 z m 40,0 h -20 V 1287 h 20 z"
       style="fill:#231f20;fill-opacity:1;fill-rule:nonzero;stroke:none"
       id="path236"
       inkscape:connector-curvature="0" /><path
       d="m 77.7311,1269.4441 v 9 h 56.69291 v -9 z"
       style="fill:none;stroke:#ff0000;stroke-width:0.072;stroke-miterlimit:4;stroke-dasharray:none;stroke-opacity:1"
       id="path1546" /><path
       d="m 189.9122,1192.2 v -85.0393 h -9 V 1192.2 Z"
       style="fill:none;stroke:#ff0000;stroke-width:0.072;stroke-miterlimit:4;stroke-dasharray:none;stroke-opacity:1"
       id="path1548" /><path
       d="m 77.7311,1025.452 v 9 h 56.69291 v -9 z"
       style="fill:none;stroke:#ff0000;stroke-width:0.072;stroke-miterlimit:4;stroke-dasharray:none;stroke-opacity:1"
       id="path1550" /><path
       d="m 26.707472,1192.2 v -85.0393 h -9 V 1192.2 Z"
       style="fill:none;stroke:#ff0000;stroke-width:0.072;stroke-miterlimit:4;stroke-dasharray:none;stroke-opacity:1"
       id="path1552" /><path
       d="M 9.203532,1016.948 H 198.41613 v 270 H 9.203532 Z"
       style="fill:none;stroke:#ff0000;stroke-width:0.072;stroke-miterlimit:4;stroke-dasharray:none;stroke-opacity:1"
       id="path1554" /><path
       d="m 762.22843,1275.1654 v -25.866 h 56.69287 v 25.866 h 46.48823 v -20.1968 h 9 v -24.6614 h -9 v -8.504 H 818.9213 v -9 h -56.69287 v 9 H 711.2048 v 8.504 h -9 v 24.6614 h 9 v 20.1968 z"
       style="fill:none;stroke:#ff0000;stroke-width:0.072;stroke-opacity:1;stroke-miterlimit:4;stroke-dasharray:none"
       id="path1736" /><path
       d="M 352.61944,1260.9401 V 1016.948 h -46.48819 v 70.2283 h -56.69291 v -70.2283 h -51.02221 v 243.9921 h 17.85827 v 9 h 19.84252 v -9 h 83.33717 v 9 h 19.84251 v -9 z"
       style="fill:none;stroke:#ff0000;stroke-width:0.072;stroke-opacity:1;stroke-miterlimit:4;stroke-dasharray:none"
       id="path1862" /><path
       d="m 396.00818,1153.3012 h 9 v 14.1733 h -9 z"
       style="fill:none;stroke:#ff0000;stroke-width:0.072;stroke-opacity:1;stroke-miterlimit:4;stroke-dasharray:none"
       id="path1988" /><path
       d="m 376.16566,1024.5375 h 24.66142 v 9 h -24.66142 z"
       style="fill:none;stroke:#ff0000;stroke-width:0.072;stroke-opacity:1;stroke-miterlimit:4;stroke-dasharray:none"
       id="path1990" /><path
       d="m 376.16566,1268.5296 h 30.33071 v 9 h -30.33071 z"
       style="fill:none;stroke:#ff0000;stroke-width:0.072;stroke-opacity:1;stroke-miterlimit:4;stroke-dasharray:none"
       id="path1992" /><path
       d="m 438.52787,1016.0335 h -70.86614 v 94.7481 h -9 v 85.0393 h 9 v 90.2127 h 70.86614 z"
       style="fill:none;stroke:#ff0000;stroke-width:0.072;stroke-opacity:1;stroke-miterlimit:4;stroke-dasharray:none"
       id="path1994" /><path
       d="m 529.73478,1181.5736 v 14.1732 h 27.70866 v -14.1732 z"
       style="fill:none;stroke:#ff0000;stroke-width:0.072;stroke-opacity:1;stroke-miterlimit:4;stroke-dasharray:none"
       id="path2135" /><path
       d="m 557.44344,1181.5736 v 14.1732 h 23.17323 v -14.1732 z"
       style="fill:none;stroke:#ff0000;stroke-width:0.072;stroke-opacity:1;stroke-miterlimit:4;stroke-dasharray:none"
       id="path2261" /><path
       d="m 481.67183,1153.9074 h 9 v 14.1732 h -9 z"
       style="fill:none;stroke:#ff0000;stroke-width:0.072;stroke-opacity:1;stroke-miterlimit:4;stroke-dasharray:none"
       id="path2387" /><path
       d="m 453.32537,1286.6398 h 70.86615 v -270.0001 h -70.86615 v 94.7481 h -9 v 85.0393 h 9 z"
       style="fill:none;stroke:#ff0000;stroke-width:0.072;stroke-opacity:1;stroke-miterlimit:4;stroke-dasharray:none"
       id="path2389" /><path
       d="m 461.82931,1278.1358 v -9 h 30.33071 v 9 z"
       style="fill:none;stroke:#ff0000;stroke-width:0.072;stroke-opacity:1;stroke-miterlimit:4;stroke-dasharray:none"
       id="path2391" /><path
       d="m 486.49073,1025.1436 v 9 h -24.66142 v -9 z"
       style="fill:none;stroke:#ff0000;stroke-width:0.072;stroke-opacity:1;stroke-miterlimit:4;stroke-dasharray:none"
       id="path2393" /><path
       d="M 539,1254.9686 V 1287 h 51.0237 v -43.37 h 56.6929 V 1287 h 46.4882 v -32.0314 h 9 v -30.3308 h -9 v -8.5038 h -46.4882 v -9 h -56.6929 v 9 H 539 v 8.5038 h -9 v 30.3308 z"
       style="fill:none;stroke:#ff0000;stroke-width:0.072;stroke-opacity:1;stroke-miterlimit:4;stroke-dasharray:none"
       id="path2534" /><path
       d="m 556.8583,1278.4962 v -9 h 19.8425 v 9 z"
       style="fill:none;stroke:#ff0000;stroke-width:0.072;stroke-opacity:1;stroke-miterlimit:4;stroke-dasharray:none"
       id="path2536" /><path
       d="m 660.038,1278.4962 v -9 h 19.8425 v 9 z"
       style="fill:none;stroke:#ff0000;stroke-width:0.072;stroke-opacity:1;stroke-miterlimit:4;stroke-dasharray:none"
       id="path2538" /></g></svg>
